<svg width="97" height="30" viewBox="0 0 97 30" fill="none" xmlns="http://www.w3.org/2000/svg">
<path fill-rule="evenodd" clip-rule="evenodd" d="M62.5221 10.643C63.6378 10.643 64.3382 10.1801 64.3382 9.32171C64.3382 8.47914 63.6382 8 62.5221 8C61.4065 8 60.744 8.47914 60.744 9.32171C60.744 10.1806 61.4061 10.643 62.5221 10.643ZM87.7348 14.6703C87.7348 14.1161 86.9413 13.4604 85.5215 13.4604C84.1343 13.4604 83.3272 14.105 83.3272 14.6703H87.7343H87.7348ZM85.5215 11.3133C88.491 11.3133 90.6848 12.7811 90.5718 15.8549V16.2024H83.3272C83.3272 17.1954 84.1169 17.8379 85.5235 17.8379C86.6333 17.8379 87.4734 17.3716 87.6848 16.8607H90.5224C90.3332 18.0663 88.8339 19.985 85.5235 19.985C81.8541 19.985 80.4902 17.9043 80.4902 15.5416C80.4902 12.899 82.5516 11.3133 85.5215 11.3133ZM27.7299 14.6703C27.7299 14.1161 26.9368 13.4604 25.5171 13.4604C24.1294 13.4604 23.3227 14.105 23.3227 14.6703H27.7299ZM25.5171 11.3129C28.4865 11.3129 30.6804 12.7807 30.5674 15.8544V16.202H23.3227C23.3227 17.195 24.1124 17.8374 25.519 17.8374C26.6283 17.8374 27.4689 17.3711 27.6804 16.8603H30.5179C30.3287 18.0659 28.829 19.9846 25.519 19.9846C21.8497 19.9846 20.4852 17.9039 20.4852 15.5411C20.4852 12.8986 22.5471 11.3129 25.5171 11.3129ZM73.7708 17.6729C75.3977 17.6729 76.3057 17.045 76.3057 15.641C76.3057 14.237 75.3977 13.6254 73.7708 13.6254C72.1445 13.6254 71.236 14.237 71.236 15.641C71.236 17.045 72.1445 17.6729 73.7708 17.6729ZM68.2103 8H71.237V11.99L70.6695 13.4771H71.4261C71.9175 12.3701 72.8255 11.3129 75.1901 11.3129C77.9514 11.3129 79.3324 13.2787 79.3324 15.641C79.3324 18.0033 77.9514 19.9854 75.1901 19.9854C72.8255 19.9854 71.9175 18.9281 71.4261 17.8211H70.6695L71.237 19.3083V19.8204H68.2103V8ZM58.9779 17.5259H61.2145L61.2048 13.8059L58.9755 13.7921V11.48L62.5697 11.4843C63.6285 11.435 64.215 11.9471 64.215 12.8724L64.2247 17.5263H66.8788V19.8389H58.9779V17.5263V17.5259ZM50.2714 17.525V19.838L45.8395 19.8367C44.7991 19.8697 44.2316 19.3413 44.2316 18.4327V13.7909L42.9006 13.7981V11.4856L44.2316 11.4783V8.12257H47.2583V11.4783H50.2752V13.7909H47.2583V17.5186L50.2709 17.525H50.2714ZM35.7734 17.6879C37.438 17.6879 38.5352 17.0763 38.5352 16.052L36.0954 16.3494C35.1874 16.4651 34.7334 16.5809 34.7334 17.0596C34.7334 17.5387 35.2631 17.6874 35.7734 17.6874V17.6879ZM35.5279 14.9287L38.5352 14.5653C38.5352 13.8881 37.9299 13.475 36.6251 13.475C35.4144 13.475 34.7334 13.9211 34.7334 14.681H31.8959C31.8959 12.5664 33.9578 11.3279 36.6251 11.3279C39.254 11.3279 41.5619 12.4344 41.5619 15.1764V17.522H42.9006V19.835H40.8431C39.935 19.835 39.4243 19.3889 39.4243 18.596V18.431L39.8972 17.4397H39.1405C38.7816 18.8274 37.8542 20 35.1874 20C32.2175 20 31.7067 18.4143 31.7067 17.5554C31.7067 16.118 32.6904 15.2754 35.5279 14.9287ZM13.6669 12.8673C13.6669 11.9587 14.2538 11.4633 15.2938 11.48L19.7082 11.4783L19.7096 13.8041H16.6936V19.82H13.6669V12.8677V12.8673ZM51.6033 12.8673C51.6033 11.9587 52.1897 11.4633 53.2301 11.48L57.6441 11.4783L57.6455 13.8041H54.6295V19.82H51.6033V12.8677V12.8673ZM7.389 11.3159C9.99951 11.3159 12.3825 12.5544 12.515 14.933H9.48827C9.37526 14.1899 8.59967 13.628 7.389 13.628C5.95132 13.628 5.19514 14.3716 5.19514 15.6436C5.19514 16.9319 5.95181 17.675 7.389 17.675C8.59967 17.675 9.37526 17.1136 9.48876 16.3704H12.5154C12.3825 18.749 9.99951 19.9876 7.389 19.9876C4.3434 19.9876 2.16846 18.4357 2.16846 15.6436C2.16846 12.8681 4.3434 11.3154 7.389 11.3154V11.3159ZM94.327 10.1643V11.48H93.876V10.6143L93.989 10.3229H93.8536L93.6553 11.48H92.7356L92.5329 10.3229H92.4019L92.5106 10.6143V11.48H92.0595V10.1643H92.9704L93.1503 11.3214H93.2405L93.421 10.1643H94.327ZM91.9469 10.5187H91.5007V11.4787H91.0496V10.5187H90.5946V10.1643H91.9469V10.5187Z" fill="#212121"/>
</svg>
