<svg width="32" height="32" viewBox="0 0 32 32" fill="none" xmlns="http://www.w3.org/2000/svg">
<circle cx="16" cy="16" r="15.5" fill="white" fill-opacity="0.1" stroke="#121212"/>
<path d="M21.7832 19.9061C22.4833 18.8991 22.8954 17.6739 22.8954 16.3524C22.8954 12.9234 20.1338 10.1436 16.7271 10.1436C13.3206 10.1436 10.5576 12.9234 10.5576 16.3524C10.5576 19.7814 13.3192 22.5612 16.7258 22.5612C17.9982 22.5612 19.1791 22.1736 20.1607 21.5094L22.7837 22.5381L21.7832 19.9061Z" fill="#121212"/>
<path d="M16.727 7.63477C13.0928 7.63477 9.98375 9.8887 8.69921 13.0819H7.35542C5.57807 13.0819 4.1333 14.5375 4.1333 16.3252C4.1333 18.1129 5.57942 19.5685 7.35542 19.5685H8.67767C9.94875 22.7915 13.0726 25.0712 16.7283 25.0712C18.5905 25.0712 20.3126 24.4775 21.725 23.4719L20.2803 22.9054C19.226 23.4855 18.0155 23.8161 16.7283 23.8161C12.6337 23.8161 9.31321 20.4753 9.31321 16.3523C9.31321 12.2294 12.6322 8.88846 16.7283 8.88846C20.8229 8.88846 24.1433 12.2294 24.1433 16.3523C24.1433 17.7009 23.7865 18.964 23.1658 20.0551L23.7165 21.5012C24.7681 20.0578 25.3901 18.2782 25.3901 16.3523C25.3875 11.5381 21.5096 7.63477 16.727 7.63477ZM7.35408 18.2769L7.29079 18.2782C6.24997 18.2444 5.41246 17.381 5.41246 16.3252C5.41246 15.2762 6.2392 14.4169 7.27194 14.3735H8.29257C8.14581 15.0105 8.06502 15.6719 8.06502 16.3537C8.06502 17.0151 8.14042 17.6588 8.27911 18.2782H7.35408V18.2769Z" fill="#121212"/>
</svg>
