<svg width="108" height="108" viewBox="0 0 108 108" fill="none" xmlns="http://www.w3.org/2000/svg">
<g filter="url(#filter0_d_433_5387)">
<path fill-rule="evenodd" clip-rule="evenodd" d="M109.203 14.3816H90.9612C88.3706 14.3816 86.2704 12.2815 86.2704 9.6908C86.2704 7.10014 88.3706 5 90.9612 5H109.203V14.3816ZM71.4162 43.569H84.5199C88.0882 43.6037 90.9702 46.5071 90.9702 50.0837C90.9702 53.6818 88.0533 56.5987 84.4552 56.5987H60.3317V43.5688H60.3316V56.5988H109.203V43.569V43.5688V26.3694H71.4162C66.6667 26.3694 62.8164 30.2197 62.8164 34.9692C62.8164 39.7187 66.6667 43.569 71.4162 43.569ZM27.0892 72.7561L27.1142 72.7562H65.2504C70.4193 72.7708 74.605 76.9654 74.605 82.1377C74.605 87.2984 70.4381 91.4858 65.2853 91.5191H42.626C38.1644 91.5191 34.5474 95.136 34.5474 99.5977C34.5474 104.059 38.1644 107.676 42.626 107.676H109.203V91.5193V91.5191V72.7562V72.7561V56.599H27.1142C22.6526 56.599 19.0356 60.2159 19.0356 64.6776C19.0356 69.1263 22.6316 72.7351 27.0754 72.7561L15 72.7561H27.0892ZM109.203 26.3693H85.3253L94.2714 26.3693C97.5817 26.3693 100.265 23.6858 100.265 20.3755C100.265 17.0701 97.5896 14.3896 94.2859 14.3817H109.203V26.3693Z" fill="#F3F4F5" fill-opacity="0.15" shape-rendering="crispEdges"/>
</g>
<defs>
<filter id="filter0_d_433_5387" x="0" y="0" width="124.203" height="132.676" filterUnits="userSpaceOnUse" color-interpolation-filters="sRGB">
<feFlood flood-opacity="0" result="BackgroundImageFix"/>
<feColorMatrix in="SourceAlpha" type="matrix" values="0 0 0 0 0 0 0 0 0 0 0 0 0 0 0 0 0 0 127 0" result="hardAlpha"/>
<feOffset dy="10"/>
<feGaussianBlur stdDeviation="7.5"/>
<feComposite in2="hardAlpha" operator="out"/>
<feColorMatrix type="matrix" values="0 0 0 0 0 0 0 0 0 0 0 0 0 0 0 0 0 0 0.2 0"/>
<feBlend mode="normal" in2="BackgroundImageFix" result="effect1_dropShadow_433_5387"/>
<feBlend mode="normal" in="SourceGraphic" in2="effect1_dropShadow_433_5387" result="shape"/>
</filter>
</defs>
</svg>
