<svg width="175" height="154" viewBox="0 0 175 154" fill="none" xmlns="http://www.w3.org/2000/svg">
<path fill-rule="evenodd" clip-rule="evenodd" d="M0 31.1601L0 0.00508118H16.0226H36.4959H65.8707H88.1242V42.2521C88.1135 36.116 83.136 31.1451 76.9974 31.1451C70.8639 31.1451 65.8895 36.1079 65.8707 42.237V64.5405L65.8706 64.5806V64.5819C65.8483 72.6745 59.2811 79.2279 51.1833 79.2279C43.0717 79.2279 36.4959 72.6521 36.4959 64.5405L36.4959 25.4955C36.49 19.847 31.9092 15.2697 26.2593 15.2697C20.6057 15.2697 16.0226 19.8529 16.0226 25.5064L16.0226 31.1601C16.0226 35.5846 12.4358 39.1714 8.0113 39.1714C3.58678 39.1714 0 35.5846 0 31.1601ZM115.719 0.00508118L115.719 140.203C115.719 147.823 109.542 154 101.922 154C94.3015 154 88.1243 147.823 88.1243 140.203L88.1243 0.00508118H115.719ZM147.764 113.711V75.0785C147.743 66.2472 140.577 59.0946 131.741 59.0946C122.892 59.0946 115.719 66.2682 115.719 75.1172L115.719 0.00508118L147.764 0.00508118H175.358L175.358 113.711C175.358 121.331 169.181 127.508 161.561 127.508C153.941 127.508 147.764 121.331 147.764 113.711Z" fill="#121212"/>
</svg>
