<svg width="191" height="217" viewBox="0 0 191 217" fill="none" xmlns="http://www.w3.org/2000/svg">
<path fill-rule="evenodd" clip-rule="evenodd" d="M190.995 19.8723H152.354C146.867 19.8723 142.418 15.4237 142.418 9.93615C142.418 4.44857 146.867 0 152.354 0H190.995V19.8723ZM110.954 81.6973H138.609C146.214 81.7167 152.373 87.8878 152.373 95.4974C152.373 103.113 146.205 109.287 138.592 109.298H190.995V81.6973V45.2647H110.954C100.893 45.2647 92.7374 53.4204 92.7374 63.481C92.7374 73.5273 100.87 81.6741 110.911 81.6972H110.912L110.954 81.6973ZM97.8993 143.522H17.1122C7.6614 143.522 0 135.861 0 126.41C0 116.959 7.66142 109.298 17.1123 109.298H190.995V143.522V183.267V217.491H49.9697C40.5188 217.491 32.8574 209.83 32.8574 200.379C32.8574 190.928 40.5188 183.267 49.9697 183.267L97.8358 183.267C108.811 183.267 117.708 174.37 117.708 163.394C117.708 152.44 108.845 143.556 97.8993 143.522ZM190.995 19.8723V45.2647H140.416L159.366 45.2647C166.378 45.2647 172.063 39.5804 172.063 32.5685C172.063 25.564 166.39 19.8843 159.389 19.8723H190.995Z" fill="#121212"/>
</svg>
