<svg width="156" height="128" viewBox="0 0 156 128" fill="none" xmlns="http://www.w3.org/2000/svg">
<path fill-rule="evenodd" clip-rule="evenodd" d="M0 128L0 44.2712C0 38.4301 4.73516 33.6949 10.5763 33.6949C16.4174 33.6949 21.1525 38.4301 21.1525 44.2712L21.1525 128H0ZM48.4745 67.7097L48.4745 17.3898C48.4745 11.7921 53.0124 7.25425 58.6101 7.25425C64.2079 7.25425 68.7457 11.7921 68.7457 17.3898L68.7458 62.6157L68.7458 93.9653C68.7458 99.563 73.2836 104.101 78.8814 104.101C84.4662 104.101 88.996 99.5839 89.0169 94.004V128L68.7457 128H48.4746H48.4745H21.1526L21.1526 0.203392L21.1528 0.203377L21.1528 67.6271C21.1528 75.1719 27.269 81.2881 34.8138 81.2881C42.331 81.2881 48.4301 75.2164 48.4745 67.7097ZM89.0169 128H111.051L111.051 81.7288C111.051 75.6443 106.118 70.7119 100.034 70.7119C93.9494 70.7119 89.0169 75.6443 89.0169 81.7288L89.0169 128ZM128.678 104.644C128.678 97.0993 134.794 90.9831 142.339 90.9831C149.884 90.9831 156 97.0993 156 104.644V128H128.678H111.051L111.051 113.907V114.035C111.051 118.903 114.997 122.849 119.864 122.849C124.722 122.849 128.662 118.918 128.678 114.064V113.907V104.644Z" fill="#121212"/>
</svg>
