<svg width="479" height="854" viewBox="0 0 479 854" fill="none" xmlns="http://www.w3.org/2000/svg">
<path fill-rule="evenodd" clip-rule="evenodd" d="M108.816 854.991L468.618 347.183L479.172 368.907L479.172 433.124L479.172 433.124L479.172 474.373V516.091V560.621L451.801 494.836L451.8 494.836L215.7 854.991H108.816Z" fill="url(#paint0_linear_998_1346)"/>
<path d="M477.751 265.407L61.9104 854.517L109.014 854.557L426.558 444.293L477.81 373.664L477.778 315.084L477.751 265.407Z" fill="url(#paint1_linear_998_1346)" fill-opacity="0.3"/>
<path d="M478.709 153.124L101.026 654.722L201.217 658.088L451.872 302.13L478.769 265.13L478.721 175.619L478.709 153.124Z" fill="url(#paint2_linear_998_1346)"/>
<path d="M477.751 116.348L325.175 303.881L166.285 494.151L40.8034 653.472L100.544 655.317L175.242 556.678L375.433 291.617L478.517 154.646L478.52 137.822L478.524 120.063L477.751 116.348Z" fill="url(#paint3_linear_998_1346)" fill-opacity="0.15"/>
<path d="M480.731 26.1876L89.1908 501.577L166.796 493.607L237.809 408.335L305.799 326.771L440.216 162.122L481.325 111.967L480.731 41.4942L480.731 26.1876Z" fill="url(#paint4_linear_998_1346)"/>
<path d="M478.397 -25.7728L2.02906e-05 513.371L88.8028 501.652L127.231 457.241L242.357 319.131L478.397 30.9448L478.397 8.44523L478.397 -25.7728Z" fill="url(#paint5_linear_998_1346)" fill-opacity="0.1"/>
<path fill-rule="evenodd" clip-rule="evenodd" d="M253.446 854.99L444.7 586.24L478.139 661.493L477.767 662.079L479.128 754.986L479.128 854.828L426.605 736.685L351.734 854.99H253.446Z" fill="url(#paint6_linear_998_1346)"/>
<path d="M426.563 736.96L350.987 854.99L389.853 854.99H418.256L438.437 854.99L479.172 854.99L455.628 801.554L426.563 736.96Z" fill="url(#paint7_linear_998_1346)" fill-opacity="0.3"/>
<path d="M451.69 495.09L325.468 687.765L215.221 855.574H269.784L325.468 854.637L427.625 693.015L478.693 661.516L478.693 624.017L477.751 556.964L451.69 495.09Z" fill="url(#paint8_linear_998_1346)" fill-opacity="0.3"/>
<defs>
<linearGradient id="paint0_linear_998_1346" x1="426.264" y1="366.68" x2="273.54" y2="831.147" gradientUnits="userSpaceOnUse">
<stop stop-color="#AB2123"/>
<stop offset="1" stop-color="#146EAC"/>
</linearGradient>
<linearGradient id="paint1_linear_998_1346" x1="418.395" y1="288.027" x2="236.531" y2="823.375" gradientUnits="userSpaceOnUse">
<stop stop-color="#AB2123"/>
<stop offset="1" stop-color="#146EAC"/>
</linearGradient>
<linearGradient id="paint2_linear_998_1346" x1="424.806" y1="172.512" x2="276.023" y2="636.618" gradientUnits="userSpaceOnUse">
<stop stop-color="#AB2123"/>
<stop offset="1" stop-color="#146EAC"/>
</linearGradient>
<linearGradient id="paint3_linear_998_1346" x1="419.183" y1="133.407" x2="230.879" y2="637.401" gradientUnits="userSpaceOnUse">
<stop stop-color="#AB2123"/>
<stop offset="1" stop-color="#146EAC"/>
</linearGradient>
<linearGradient id="paint4_linear_998_1346" x1="428.92" y1="42.765" x2="268.387" y2="489.515" gradientUnits="userSpaceOnUse">
<stop stop-color="#AB2123"/>
<stop offset="1" stop-color="#146EAC"/>
</linearGradient>
<linearGradient id="paint5_linear_998_1346" x1="419.137" y1="-7.08716" x2="245.867" y2="507.926" gradientUnits="userSpaceOnUse">
<stop stop-color="#AB2123"/>
<stop offset="1" stop-color="#146EAC"/>
</linearGradient>
<linearGradient id="paint6_linear_998_1346" x1="446.888" y1="596.558" x2="374.965" y2="848.409" gradientUnits="userSpaceOnUse">
<stop stop-color="#AB2123"/>
<stop offset="1" stop-color="#146EAC"/>
</linearGradient>
<linearGradient id="paint7_linear_998_1346" x1="460.86" y1="741.492" x2="435.673" y2="855.559" gradientUnits="userSpaceOnUse">
<stop stop-color="#AB2123"/>
<stop offset="1" stop-color="#146EAC"/>
</linearGradient>
<linearGradient id="paint8_linear_998_1346" x1="409.731" y1="512.217" x2="281.858" y2="825.367" gradientUnits="userSpaceOnUse">
<stop stop-color="#AB2123"/>
<stop offset="1" stop-color="#146EAC"/>
</linearGradient>
</defs>
</svg>
