<svg width="85" height="67" viewBox="0 0 85 67" fill="none" xmlns="http://www.w3.org/2000/svg">
<g filter="url(#filter0_d_464_3072)">
<path fill-rule="evenodd" clip-rule="evenodd" d="M63.5748 66.7536V54.2601C63.5748 52.4859 65.0131 51.0475 66.7874 51.0475C68.5617 51.0475 70 52.4859 70 54.2601V66.7536H63.5748ZM43.5851 40.8742L43.5851 49.8421C43.5648 52.289 41.5749 54.2663 39.1233 54.2663C36.659 54.2663 34.6613 52.2686 34.6613 49.8043V33.2827H43.5852V33.2826H34.6612L34.6612 66.7536H43.5851H43.5852H55.3646H55.3647H63.5746V56.5684C63.5525 58.8165 61.7232 60.6322 59.4698 60.6322C57.2027 60.6322 55.3648 58.7943 55.3648 56.5272V50.4002H55.3647L55.3647 40.8742C55.3647 37.6214 52.7277 34.9844 49.4749 34.9844C46.222 34.9844 43.5851 37.6214 43.5851 40.8742ZM23.5954 36.6703L23.5954 10.5328L23.5955 10.4981L23.5955 10.4975C23.6145 7.45808 26.0843 5 29.1282 5C32.1839 5 34.6611 7.47714 34.6611 10.5328L34.6611 66.7536H23.5955H23.5954L10.7452 66.7536H10.745H-0.320518L-0.320518 21.1565C-0.320518 18.1008 2.15662 15.6237 5.21232 15.6237C8.26802 15.6237 10.7452 18.1008 10.7452 21.1565V36.6782C10.7695 40.2059 13.6368 43.0581 17.1702 43.0581C20.7063 43.0581 23.5752 40.2016 23.5954 36.6703Z" fill="#F3F4F5" fill-opacity="0.15" shape-rendering="crispEdges"/>
</g>
<defs>
<filter id="filter0_d_464_3072" x="-15.3203" y="0" width="100.32" height="91.7537" filterUnits="userSpaceOnUse" color-interpolation-filters="sRGB">
<feFlood flood-opacity="0" result="BackgroundImageFix"/>
<feColorMatrix in="SourceAlpha" type="matrix" values="0 0 0 0 0 0 0 0 0 0 0 0 0 0 0 0 0 0 127 0" result="hardAlpha"/>
<feOffset dy="10"/>
<feGaussianBlur stdDeviation="7.5"/>
<feComposite in2="hardAlpha" operator="out"/>
<feColorMatrix type="matrix" values="0 0 0 0 0 0 0 0 0 0 0 0 0 0 0 0 0 0 0.2 0"/>
<feBlend mode="normal" in2="BackgroundImageFix" result="effect1_dropShadow_464_3072"/>
<feBlend mode="normal" in="SourceGraphic" in2="effect1_dropShadow_464_3072" result="shape"/>
</filter>
</defs>
</svg>
