<svg width="24" height="24" viewBox="0 0 24 24" fill="none" xmlns="http://www.w3.org/2000/svg">
<circle cx="12" cy="12" r="11.5" stroke="#F3F4F5"/>
<path d="M12 10.14C11.6321 10.14 11.2725 10.2491 10.9666 10.4535C10.6608 10.6578 10.4224 10.9483 10.2816 11.2882C10.1408 11.6281 10.104 12.0021 10.1757 12.3629C10.2475 12.7237 10.4247 13.0551 10.6848 13.3152C10.9449 13.5753 11.2763 13.7525 11.6371 13.8243C11.9979 13.896 12.3719 13.8592 12.7118 13.7184C13.0517 13.5776 13.3422 13.3392 13.5465 13.0334C13.7509 12.7275 13.86 12.3679 13.86 12C13.86 11.7557 13.8119 11.5139 13.7184 11.2882C13.6249 11.0625 13.4879 10.8575 13.3152 10.6848C13.1425 10.5121 12.9375 10.3751 12.7118 10.2816C12.4861 10.1881 12.2443 10.14 12 10.14ZM19.4475 8.3025C19.4436 7.72332 19.3369 7.14943 19.1325 6.6075C18.982 6.21094 18.749 5.85082 18.4491 5.55089C18.1492 5.25096 17.7891 5.01804 17.3925 4.8675C16.8506 4.6631 16.2767 4.55645 15.6975 4.5525C14.73 4.5 14.445 4.5 12 4.5C9.555 4.5 9.27 4.5 8.3025 4.5525C7.72332 4.55645 7.14943 4.6631 6.6075 4.8675C6.21094 5.01804 5.85082 5.25096 5.55089 5.55089C5.25096 5.85082 5.01804 6.21094 4.8675 6.6075C4.6631 7.14943 4.55645 7.72332 4.5525 8.3025C4.5 9.27 4.5 9.555 4.5 12C4.5 14.445 4.5 14.73 4.5525 15.6975C4.56057 16.2787 4.66708 16.8544 4.8675 17.4C5.01737 17.7947 5.2501 18.1528 5.55 18.45C5.84865 18.7517 6.20954 18.9846 6.6075 19.1325C7.14943 19.3369 7.72332 19.4436 8.3025 19.4475C9.27 19.5 9.555 19.5 12 19.5C14.445 19.5 14.73 19.5 15.6975 19.4475C16.2767 19.4436 16.8506 19.3369 17.3925 19.1325C17.7905 18.9846 18.1514 18.7517 18.45 18.45C18.7499 18.1528 18.9826 17.7947 19.1325 17.4C19.3367 16.8554 19.4433 16.2791 19.4475 15.6975C19.5 14.73 19.5 14.445 19.5 12C19.5 9.555 19.5 9.27 19.4475 8.3025ZM17.5425 14.3025C17.5184 14.7653 17.4197 15.2212 17.25 15.6525C17.1044 16.0123 16.8879 16.3391 16.6135 16.6135C16.3391 16.8879 16.0123 17.1044 15.6525 17.25C15.2171 17.4102 14.7587 17.4988 14.295 17.5125C13.7025 17.5125 13.545 17.5125 12 17.5125C10.455 17.5125 10.2975 17.5125 9.705 17.5125C9.2413 17.4988 8.78287 17.4102 8.3475 17.25C7.97558 17.1118 7.63971 16.8913 7.365 16.605C7.09325 16.3359 6.88338 16.0109 6.75 15.6525C6.58917 15.2176 6.50295 14.7586 6.495 14.295C6.495 13.7025 6.495 13.545 6.495 12C6.495 10.455 6.495 10.2975 6.495 9.705C6.50295 9.24137 6.58917 8.78241 6.75 8.3475C6.88821 7.97558 7.10871 7.63971 7.395 7.365C7.66525 7.09472 7.98995 6.88507 8.3475 6.75C8.78287 6.5898 9.2413 6.50116 9.705 6.4875C10.2975 6.4875 10.455 6.4875 12 6.4875C13.545 6.4875 13.7025 6.4875 14.295 6.4875C14.7587 6.50116 15.2171 6.5898 15.6525 6.75C16.0244 6.88821 16.3603 7.10871 16.635 7.395C16.9068 7.66406 17.1166 7.9891 17.25 8.3475C17.4102 8.78287 17.4988 9.2413 17.5125 9.705C17.5125 10.2975 17.5125 10.455 17.5125 12C17.5125 13.545 17.565 13.7025 17.5425 14.295V14.3025ZM16.3425 8.7225C16.2532 8.48024 16.1124 8.26023 15.9298 8.07766C15.7473 7.89509 15.5273 7.7543 15.285 7.665C14.9524 7.5497 14.602 7.49384 14.25 7.5C13.665 7.5 13.5 7.5 12 7.5C10.5 7.5 10.335 7.5 9.75 7.5C9.3962 7.50346 9.0458 7.56948 8.715 7.695C8.47645 7.78024 8.25877 7.91528 8.07644 8.09115C7.89411 8.26702 7.7513 8.47968 7.6575 8.715C7.54858 9.04903 7.49537 9.3987 7.5 9.75C7.5 10.335 7.5 10.5 7.5 12C7.5 13.5 7.5 13.665 7.5 14.25C7.50744 14.6034 7.57333 14.9531 7.695 15.285C7.7843 15.5273 7.92509 15.7473 8.10766 15.9298C8.29023 16.1124 8.51024 16.2532 8.7525 16.3425C9.0725 16.4602 9.40924 16.526 9.75 16.5375C10.335 16.5375 10.5 16.5375 12 16.5375C13.5 16.5375 13.665 16.5375 14.25 16.5375C14.6038 16.534 14.9542 16.468 15.285 16.3425C15.5273 16.2532 15.7473 16.1124 15.9298 15.9298C16.1124 15.7473 16.2532 15.5273 16.3425 15.285C16.468 14.9542 16.534 14.6038 16.5375 14.25C16.5375 13.665 16.5375 13.5 16.5375 12C16.5375 10.5 16.5375 10.335 16.5375 9.75C16.5377 9.39585 16.4716 9.04479 16.3425 8.715V8.7225ZM12 14.865C11.6241 14.865 11.2519 14.7908 10.9047 14.6468C10.5576 14.5027 10.2422 14.2915 9.97679 14.0254C9.71134 13.7593 9.50102 13.4434 9.35786 13.0958C9.2147 12.7483 9.14151 12.3759 9.1425 12C9.1425 11.433 9.31072 10.8788 9.62586 10.4075C9.94101 9.93621 10.3889 9.569 10.9129 9.35238C11.4368 9.13575 12.0132 9.07946 12.5692 9.19061C13.1252 9.30177 13.6356 9.57538 14.036 9.97681C14.4364 10.3782 14.7087 10.8894 14.8184 11.4457C14.9281 12.0019 14.8703 12.5782 14.6523 13.1016C14.4343 13.625 14.0659 14.0719 13.5937 14.3858C13.1216 14.6997 12.567 14.8665 12 14.865ZM15 9.6975C14.8342 9.67995 14.6808 9.60167 14.5693 9.47773C14.4578 9.35379 14.3961 9.19297 14.3961 9.02625C14.3961 8.85953 14.4578 8.69871 14.5693 8.57477C14.6808 8.45083 14.8342 8.37255 15 8.355C15.1658 8.37255 15.3192 8.45083 15.4307 8.57477C15.5422 8.69871 15.6039 8.85953 15.6039 9.02625C15.6039 9.19297 15.5422 9.35379 15.4307 9.47773C15.3192 9.60167 15.1658 9.67995 15 9.6975Z" fill="#F3F4F5"/>
</svg>
