<svg width="24" height="24" viewBox="0 0 24 24" fill="none" xmlns="http://www.w3.org/2000/svg">
<circle cx="12" cy="12" r="11.5" stroke="#F3F4F5"/>
<path d="M16.3372 14.9294C16.8623 14.1742 17.1713 13.2553 17.1713 12.2642C17.1713 9.6924 15.1001 7.60754 12.5451 7.60754C9.99017 7.60754 7.91797 9.6924 7.91797 12.2642C7.91797 14.8359 9.98919 16.9208 12.5441 16.9208C13.4984 16.9208 14.3841 16.6301 15.1203 16.132L17.0875 16.9035L16.3372 14.9294Z" fill="#F3F4F5"/>
<path d="M12.5453 5.72607C9.81969 5.72607 7.48794 7.41653 6.52453 9.8114H5.51669C4.18367 9.8114 3.1001 10.9031 3.1001 12.2439C3.1001 13.5847 4.18469 14.6764 5.51669 14.6764H6.50837C7.46168 17.0936 9.80456 18.8034 12.5463 18.8034C13.943 18.8034 15.2345 18.3581 16.2939 17.6039L15.2103 17.1791C14.4196 17.6141 13.5117 17.8621 12.5463 17.8621C9.47537 17.8621 6.98503 15.3564 6.98503 12.2642C6.98503 9.17202 9.47431 6.66634 12.5463 6.66634C15.6173 6.66634 18.1076 9.17202 18.1076 12.2642C18.1076 13.2756 17.84 14.223 17.3744 15.0413L17.7875 16.1259C18.5762 15.0434 19.0427 13.7086 19.0427 12.2642C19.0407 8.65361 16.1323 5.72607 12.5453 5.72607ZM5.51568 13.7077L5.46822 13.7086C4.6876 13.6833 4.05946 13.0357 4.05946 12.2439C4.05946 11.4571 4.67952 10.8127 5.45408 10.7801H6.21955C6.10948 11.2579 6.04888 11.7539 6.04888 12.2653C6.04888 12.7613 6.10544 13.2441 6.20945 13.7086H5.51568V13.7077Z" fill="#F3F4F5"/>
</svg>
