<svg width="90" height="90" viewBox="0 0 90 90" fill="none" xmlns="http://www.w3.org/2000/svg">
<g filter="url(#filter0_d_361_2761)">
<circle cx="45" cy="33" r="30" fill="#25D366"/>
</g>
<path d="M53.55 36.0438C53.2 35.8688 50.925 34.8188 50.575 34.6438C50.225 34.4688 49.875 34.4688 49.525 34.8188C49.175 35.1688 48.475 36.2188 48.125 36.5688C47.95 36.9188 47.6 36.9188 47.25 36.7437C46.025 36.2188 44.8 35.5188 43.75 34.6438C42.875 33.7688 42 32.7188 41.3 31.6688C41.125 31.3188 41.3 30.9688 41.475 30.7938C41.65 30.6188 41.825 30.2688 42.175 30.0938C42.35 29.9188 42.525 29.5688 42.525 29.3938C42.7 29.2188 42.7 28.8688 42.525 28.6938C42.35 28.5188 41.475 26.4188 41.125 25.5438C40.95 24.3188 40.6 24.3188 40.25 24.3188C40.075 24.3188 39.725 24.3188 39.375 24.3188C39.025 24.3188 38.5 24.6688 38.325 24.8438C37.275 25.8938 36.75 27.1188 36.75 28.5188C36.925 30.0938 37.45 31.6688 38.5 33.0688C40.425 35.8688 42.875 38.1438 45.85 39.5438C46.725 39.8938 47.425 40.2438 48.3 40.4188C49.175 40.7688 50.05 40.7688 51.1 40.5938C52.325 40.4188 53.375 39.5438 54.075 38.4937C54.425 37.7938 54.425 37.0938 54.25 36.3938C54.25 36.3938 53.9 36.2188 53.55 36.0438ZM57.925 20.1188C51.1 13.2938 40.075 13.2938 33.25 20.1188C27.65 25.7188 26.6 34.2938 30.45 41.1187L28 50.0438L37.275 47.5938C39.9 48.9938 42.7 49.6937 45.5 49.6937C55.125 49.6937 62.825 41.9937 62.825 32.3687C63 27.8187 61.075 23.4438 57.925 20.1188ZM53.2 44.6188C50.925 46.0188 48.3 46.8938 45.5 46.8938C42.875 46.8938 40.425 46.1938 38.15 44.9688L37.625 44.6188L32.2 46.0188L33.6 40.7688L33.25 40.2437C29.05 33.2437 31.15 24.4938 37.975 20.1188C44.8 15.7438 53.55 18.0188 57.75 24.6688C61.95 31.4938 60.025 40.4188 53.2 44.6188Z" fill="#F3F4F5"/>
<defs>
<filter id="filter0_d_361_2761" x="0" y="0" width="90" height="90" filterUnits="userSpaceOnUse" color-interpolation-filters="sRGB">
<feFlood flood-opacity="0" result="BackgroundImageFix"/>
<feColorMatrix in="SourceAlpha" type="matrix" values="0 0 0 0 0 0 0 0 0 0 0 0 0 0 0 0 0 0 127 0" result="hardAlpha"/>
<feOffset dy="12"/>
<feGaussianBlur stdDeviation="7.5"/>
<feComposite in2="hardAlpha" operator="out"/>
<feColorMatrix type="matrix" values="0 0 0 0 0 0 0 0 0 0 0 0 0 0 0 0 0 0 0.3 0"/>
<feBlend mode="normal" in2="BackgroundImageFix" result="effect1_dropShadow_361_2761"/>
<feBlend mode="normal" in="SourceGraphic" in2="effect1_dropShadow_361_2761" result="shape"/>
</filter>
</defs>
</svg>
