<svg width="24" height="24" viewBox="0 0 24 24" fill="none" xmlns="http://www.w3.org/2000/svg">
<circle cx="12" cy="12" r="11.5" stroke="#F3F4F5"/>
<path d="M19.5 7.35004C18.9363 7.59461 18.3401 7.75628 17.73 7.83004C18.3736 7.44553 18.856 6.84062 19.0875 6.12754C18.4827 6.48758 17.8206 6.74126 17.13 6.87754C16.6684 6.37696 16.0537 6.04376 15.3824 5.93017C14.711 5.81659 14.0209 5.92905 13.4203 6.24993C12.8198 6.5708 12.3427 7.08193 12.0639 7.70316C11.7852 8.32439 11.7205 9.02058 11.88 9.68253C10.6571 9.62068 9.46083 9.30225 8.36899 8.74793C7.27715 8.19361 6.31413 7.4158 5.5425 6.46504C5.27185 6.93766 5.12964 7.4729 5.13 8.01754C5.12904 8.52332 5.25316 9.0215 5.49132 9.46771C5.72947 9.91392 6.07426 10.2943 6.495 10.575C6.00598 10.5617 5.52741 10.4305 5.1 10.1925V10.23C5.10367 10.9387 5.352 11.6244 5.80299 12.171C6.25398 12.7177 6.87994 13.0918 7.575 13.23C7.30744 13.3115 7.02966 13.3544 6.75 13.3575C6.55642 13.3553 6.36332 13.3377 6.1725 13.305C6.37043 13.9146 6.75347 14.4474 7.26831 14.8292C7.78315 15.2109 8.40418 15.4227 9.045 15.435C7.9629 16.2865 6.62691 16.7512 5.25 16.755C4.9993 16.7559 4.7488 16.7408 4.5 16.71C5.90582 17.6177 7.54411 18.0996 9.2175 18.0975C10.3723 18.1095 11.5179 17.8913 12.5873 17.4556C13.6568 17.0199 14.6288 16.3754 15.4464 15.5599C16.264 14.7444 16.911 13.7741 17.3494 12.7057C17.7879 11.6374 18.009 10.4923 18 9.33753C18 9.21003 18 9.07504 18 8.94003C18.5885 8.50114 19.0961 7.9631 19.5 7.35004Z" fill="#F3F4F5"/>
</svg>
