<svg width="32" height="32" viewBox="0 0 32 32" fill="none" xmlns="http://www.w3.org/2000/svg">
<circle cx="16" cy="16" r="15.5" fill="white" fill-opacity="0.1" stroke="#121212"/>
<path d="M16 13.52C15.5095 13.52 15.03 13.6654 14.6222 13.938C14.2144 14.2105 13.8965 14.5978 13.7088 15.0509C13.5211 15.5041 13.472 16.0028 13.5677 16.4838C13.6633 16.9649 13.8995 17.4068 14.2464 17.7536C14.5932 18.1005 15.0351 18.3367 15.5162 18.4323C15.9972 18.528 16.4959 18.4789 16.9491 18.2912C17.4022 18.1035 17.7895 17.7856 18.062 17.3778C18.3346 16.97 18.48 16.4905 18.48 16C18.48 15.6743 18.4159 15.3518 18.2912 15.0509C18.1666 14.7501 17.9839 14.4767 17.7536 14.2464C17.5233 14.0161 17.2499 13.8334 16.9491 13.7088C16.6482 13.5841 16.3257 13.52 16 13.52ZM25.93 11.07C25.9247 10.2978 25.7825 9.53257 25.51 8.81C25.3093 8.28126 24.9987 7.80109 24.5988 7.40119C24.1989 7.00128 23.7187 6.69072 23.19 6.49C22.4674 6.21746 21.7022 6.07526 20.93 6.07C19.64 6 19.26 6 16 6C12.74 6 12.36 6 11.07 6.07C10.2978 6.07526 9.53257 6.21746 8.81 6.49C8.28126 6.69072 7.80109 7.00128 7.40119 7.40119C7.00128 7.80109 6.69072 8.28126 6.49 8.81C6.21746 9.53257 6.07526 10.2978 6.07 11.07C6 12.36 6 12.74 6 16C6 19.26 6 19.64 6.07 20.93C6.08076 21.705 6.22277 22.4725 6.49 23.2C6.68983 23.7263 7.00013 24.2037 7.4 24.6C7.79819 25.0023 8.27939 25.3129 8.81 25.51C9.53257 25.7825 10.2978 25.9247 11.07 25.93C12.36 26 12.74 26 16 26C19.26 26 19.64 26 20.93 25.93C21.7022 25.9247 22.4674 25.7825 23.19 25.51C23.7206 25.3129 24.2018 25.0023 24.6 24.6C24.9999 24.2037 25.3102 23.7263 25.51 23.2C25.7823 22.4739 25.9244 21.7055 25.93 20.93C26 19.64 26 19.26 26 16C26 12.74 26 12.36 25.93 11.07ZM23.39 19.07C23.3579 19.6871 23.2262 20.295 23 20.87C22.8059 21.3497 22.5173 21.7854 22.1514 22.1514C21.7854 22.5173 21.3497 22.8059 20.87 23C20.2895 23.2136 19.6783 23.3318 19.06 23.35C18.27 23.35 18.06 23.35 16 23.35C13.94 23.35 13.73 23.35 12.94 23.35C12.3217 23.3318 11.7105 23.2136 11.13 23C10.6341 22.8157 10.1863 22.5217 9.82 22.14C9.45767 21.7813 9.17784 21.3479 9 20.87C8.78556 20.2901 8.67061 19.6782 8.66 19.06C8.66 18.27 8.66 18.06 8.66 16C8.66 13.94 8.66 13.73 8.66 12.94C8.67061 12.3218 8.78556 11.7099 9 11.13C9.18428 10.6341 9.47827 10.1863 9.86 9.82C10.2203 9.45962 10.6533 9.18009 11.13 9C11.7105 8.78641 12.3217 8.66821 12.94 8.65C13.73 8.65 13.94 8.65 16 8.65C18.06 8.65 18.27 8.65 19.06 8.65C19.6783 8.66821 20.2895 8.78641 20.87 9C21.3659 9.18428 21.8137 9.47827 22.18 9.86C22.5423 10.2187 22.8222 10.6521 23 11.13C23.2136 11.7105 23.3318 12.3217 23.35 12.94C23.35 13.73 23.35 13.94 23.35 16C23.35 18.06 23.42 18.27 23.39 19.06V19.07ZM21.79 11.63C21.6709 11.307 21.4832 11.0136 21.2398 10.7702C20.9964 10.5268 20.703 10.3391 20.38 10.22C19.9365 10.0663 19.4693 9.99179 19 10C18.22 10 18 10 16 10C14 10 13.78 10 13 10C12.5283 10.0046 12.0611 10.0926 11.62 10.26C11.3019 10.3737 11.0117 10.5537 10.7686 10.7882C10.5255 11.0227 10.3351 11.3062 10.21 11.62C10.0648 12.0654 9.99383 12.5316 10 13C10 13.78 10 14 10 16C10 18 10 18.22 10 19C10.0099 19.4712 10.0978 19.9375 10.26 20.38C10.3791 20.703 10.5668 20.9964 10.8102 21.2398C11.0536 21.4832 11.347 21.6709 11.67 21.79C12.0967 21.9469 12.5457 22.0347 13 22.05C13.78 22.05 14 22.05 16 22.05C18 22.05 18.22 22.05 19 22.05C19.4717 22.0454 19.9389 21.9574 20.38 21.79C20.703 21.6709 20.9964 21.4832 21.2398 21.2398C21.4832 20.9964 21.6709 20.703 21.79 20.38C21.9574 19.9389 22.0454 19.4717 22.05 19C22.05 18.22 22.05 18 22.05 16C22.05 14 22.05 13.78 22.05 13C22.0503 12.5278 21.9621 12.0597 21.79 11.62V11.63ZM16 19.82C15.4988 19.82 15.0026 19.7211 14.5397 19.529C14.0768 19.3369 13.6563 19.0554 13.3024 18.7005C12.9485 18.3457 12.668 17.9245 12.4771 17.4611C12.2863 16.9977 12.1887 16.5012 12.19 16C12.19 15.2441 12.4143 14.5051 12.8345 13.8767C13.2547 13.2483 13.8519 12.7587 14.5505 12.4698C15.2491 12.181 16.0177 12.1059 16.7589 12.2541C17.5002 12.4024 18.1808 12.7672 18.7147 13.3024C19.2485 13.8376 19.6116 14.5192 19.7578 15.2609C19.9041 16.0026 19.827 16.771 19.5363 17.4688C19.2457 18.1666 18.7545 18.7625 18.125 19.1811C17.4955 19.5996 16.7559 19.822 16 19.82ZM20 12.93C19.7789 12.9066 19.5744 12.8022 19.4257 12.637C19.277 12.4717 19.1947 12.2573 19.1947 12.035C19.1947 11.8127 19.277 11.5983 19.4257 11.433C19.5744 11.2678 19.7789 11.1634 20 11.14C20.2211 11.1634 20.4256 11.2678 20.5743 11.433C20.723 11.5983 20.8053 11.8127 20.8053 12.035C20.8053 12.2573 20.723 12.4717 20.5743 12.637C20.4256 12.8022 20.2211 12.9066 20 12.93Z" fill="#121212"/>
</svg>
