<svg width="32" height="32" viewBox="0 0 32 32" fill="none" xmlns="http://www.w3.org/2000/svg">
<circle cx="16" cy="16" r="15.5" fill="white" fill-opacity="0.1" stroke="#121212"/>
<path d="M26 11.0981C25.2483 11.3847 24.4534 11.5742 23.64 11.6606C24.4982 11.21 25.1413 10.5011 25.45 9.66535C24.6436 10.0873 23.7608 10.3846 22.84 10.5443C22.2245 9.95767 21.405 9.56716 20.5098 9.43404C19.6147 9.30093 18.6945 9.43273 17.8938 9.80879C17.093 10.1848 16.4569 10.7839 16.0852 11.5119C15.7135 12.24 15.6273 13.0559 15.84 13.8317C14.2094 13.7592 12.6144 13.386 11.1587 12.7364C9.70287 12.0867 8.41885 11.1752 7.39 10.0609C7.02914 10.6148 6.83952 11.2421 6.84 11.8804C6.83872 12.4731 7.00422 13.057 7.32176 13.5799C7.63929 14.1029 8.09902 14.5487 8.66 14.8777C8.00798 14.8621 7.36989 14.7083 6.8 14.4294V14.4734C6.80489 15.3039 7.13599 16.1075 7.73731 16.7481C8.33864 17.3888 9.17326 17.8272 10.1 17.9893C9.74326 18.0847 9.37287 18.135 9 18.1387C8.74189 18.1361 8.48442 18.1155 8.23 18.0772C8.49391 18.7916 9.00462 19.416 9.69107 19.8634C10.3775 20.3108 11.2056 20.559 12.06 20.5735C10.6172 21.5714 8.83588 22.116 7 22.1205C6.66574 22.1215 6.33174 22.1039 6 22.0678C7.87443 23.1316 10.0588 23.6963 12.29 23.6939C13.8297 23.7079 15.3571 23.4522 16.7831 22.9415C18.2091 22.4309 19.505 21.6756 20.5952 20.7198C21.6854 19.7641 22.548 18.6269 23.1326 17.3748C23.7172 16.1227 24.012 14.7808 24 13.4274C24 13.278 24 13.1197 24 12.9615C24.7847 12.4472 25.4615 11.8166 26 11.0981Z" fill="#121212"/>
</svg>
